<?xml version="1.0" encoding="UTF-8"?>
<svg version="1.1" xmlns="http://www.w3.org/2000/svg" width="1740" height="1740">
<path d="M0 0 C574.2 0 1148.4 0 1740 0 C1740 574.2 1740 1148.4 1740 1740 C1165.8 1740 591.6 1740 0 1740 C0 1165.8 0 591.6 0 0 Z " fill="#5938B7" transform="translate(0,0)"/>
<path d="M0 0 C45.87 0 91.74 0 139 0 C139.0093457 19.37396484 139.01869141 38.74792969 139.02832031 58.70898438 C139.03514925 71.65962757 139.04204563 84.61027048 139.04986572 97.56091309 C139.05036092 98.38421936 139.05085612 99.20752563 139.05136632 100.05578058 C139.06815306 127.84729116 139.09038464 155.63879466 139.11663818 183.43029785 C139.11749569 184.33950662 139.1183532 185.24871539 139.1192367 186.18547594 C139.13791513 205.95903037 139.15746899 225.73258384 139.17792095 245.50613651 C139.18794955 255.20721584 139.1977853 264.90829537 139.20751953 274.609375 C139.20897724 276.05720918 139.20897724 276.05720918 139.2104644 277.53429253 C139.2417066 308.65420665 139.26028713 339.7741122 139.27209247 370.89403927 C139.28432234 402.95273202 139.30974294 435.01138913 139.35107614 467.07005817 C139.3569477 471.62876197 139.36267301 476.18746595 139.36830902 480.74617004 C139.36942248 481.6431297 139.37053594 482.54008936 139.37168314 483.46422961 C139.3890227 497.73225327 139.39301141 512.00024885 139.39162921 526.26828165 C139.39052835 540.71575465 139.40438889 555.16315803 139.43216428 569.6106047 C139.44675077 577.39658478 139.4556878 585.18244622 139.44580269 592.96843719 C139.41496254 619.41436962 139.57863921 645.81264905 140.92662811 672.22969055 C140.96596868 673.00078587 141.00530926 673.77188119 141.04584197 674.56634303 C141.90043255 691.05187364 142.97979766 707.52402842 144 724 C96.48 724 48.96 724 0 724 C-0.33 702.88 -0.66 681.76 -1 660 C-9.92182722 669.54803223 -9.92182722 669.54803223 -18.8125 679.125 C-47.62501202 707.4439358 -87.3960999 723.77109873 -126 733 C-126.75297363 733.18288574 -127.50594727 733.36577148 -128.28173828 733.55419922 C-158.34232336 740.65356723 -191.53660354 739.50090109 -222 736 C-223.31726074 735.86319824 -223.31726074 735.86319824 -224.66113281 735.72363281 C-254.8379627 732.56520589 -286.05815227 724.1335403 -313 710 C-314.13115234 709.41677979 -314.13115234 709.41677979 -315.28515625 708.82177734 C-345.51010367 693.14049024 -373.37823419 671.18140888 -393.73388672 643.70166016 C-394.9392921 642.0815916 -396.17402748 640.48346855 -397.41015625 638.88671875 C-411.61736545 620.20627983 -421.48434403 598.73845847 -430 577 C-430.28697754 576.27748047 -430.57395508 575.55496094 -430.86962891 574.81054688 C-437.07809662 559.042751 -440.57445131 542.41245301 -443.50732422 525.77294922 C-444.01058137 522.94044439 -444.53817245 520.11309878 -445.06640625 517.28515625 C-449.296198 494.09769706 -450.18043783 471.1388216 -450.25 447.625 C-450.2580365 446.10592041 -450.2580365 446.10592041 -450.26623535 444.55615234 C-450.32227486 430.58363468 -449.60959002 416.87891772 -448 403 C-447.78102051 401.0494873 -447.78102051 401.0494873 -447.55761719 399.05957031 C-444.87191955 376.25944401 -440.58602202 353.7106011 -433 332 C-432.75169434 331.2786084 -432.50338867 330.5572168 -432.24755859 329.81396484 C-421.75615799 299.55894721 -407.03004083 271.31240655 -386 247 C-385.34128906 246.23042969 -384.68257812 245.46085938 -384.00390625 244.66796875 C-372.78904239 231.88429596 -360.78530845 219.98103177 -347 210 C-346.39784668 209.55881836 -345.79569336 209.11763672 -345.17529297 208.66308594 C-305.07611064 179.48288054 -258.23195308 163.97004574 -209 160 C-207.84564453 159.89631104 -207.84564453 159.89631104 -206.66796875 159.79052734 C-201.7816234 159.35457516 -196.9026573 159.12094909 -192 159 C-190.92411621 158.97276855 -189.84823242 158.94553711 -188.73974609 158.91748047 C-171.88665596 158.55745879 -155.61804377 159.1212349 -139 162 C-138.16388184 162.13921875 -137.32776367 162.2784375 -136.46630859 162.421875 C-91.59621815 170.03683437 -50.70703739 189.20329083 -17.1875 220 C-16.60162109 220.53270508 -16.01574219 221.06541016 -15.41210938 221.61425781 C-9.95411747 226.73303521 -5.86451286 232.05448428 -1 238 C-0.67 159.46 -0.34 80.92 0 0 Z " fill="#FEFEFE" transform="translate(915,507)"/>
<path d="M0 0 C0.78681152 0.17160645 1.57362305 0.34321289 2.38427734 0.52001953 C39.82693803 8.90471781 72.99987569 30.86487309 93.9296875 63.30419922 C115.85008051 98.03482191 124.46002688 137.03996364 124.375 177.8125 C124.37418427 179.29076263 124.37418427 179.29076263 124.37335205 180.79888916 C124.33199815 197.15749793 123.40533421 212.94776249 120 229 C119.78569336 230.01094727 119.57138672 231.02189453 119.35058594 232.06347656 C112.12873424 264.76679625 97.13667871 293.07037584 75 318 C74.12988281 318.98033203 74.12988281 318.98033203 73.2421875 319.98046875 C55.55619936 338.68851148 30.5513372 351.20625988 6 358 C5.00226563 358.29414795 5.00226563 358.29414795 3.984375 358.59423828 C-9.17133275 362.31864351 -22.49645063 362.39736155 -36.0625 362.4375 C-36.94579987 362.4436734 -37.82909973 362.4498468 -38.73916626 362.45620728 C-56.57878608 362.53622226 -74.02846144 360.721833 -91 355 C-91.62825684 354.79004395 -92.25651367 354.58008789 -92.90380859 354.36376953 C-114.21237963 347.13847962 -131.9084336 335.6451984 -148 320 C-148.84075073 319.19212036 -148.84075073 319.19212036 -149.69848633 318.36791992 C-179.55891258 289.22594002 -191.20251878 247.24339917 -195.65600586 207.00854492 C-195.91963416 204.70287317 -196.24198653 202.40385042 -196.58984375 200.109375 C-197.41159973 193.5621989 -197.19827766 186.90161382 -197.1875 180.3125 C-197.18656342 179.57602234 -197.18562683 178.83954468 -197.18466187 178.08074951 C-197.1113679 151.44723767 -194.34425044 124.12415437 -185 99 C-184.72317383 98.23703613 -184.44634766 97.47407227 -184.16113281 96.68798828 C-170.47246639 59.32902786 -146.23400559 28.48151225 -109.984375 11.0234375 C-101.54350419 7.11973844 -93.00587829 4.34174721 -84 2 C-82.67162109 1.58621094 -82.67162109 1.58621094 -81.31640625 1.1640625 C-56.82916237 -6.36474003 -24.87230753 -5.59695175 0 0 Z " fill="#5938B7" transform="translate(806,776)"/>
<path d="M0 0 C43.89 0 87.78 0 133 0 C133 42.57 133 85.14 133 129 C89.11 129 45.22 129 0 129 C0 86.43 0 43.86 0 0 Z " fill="#FFFFFF" transform="translate(1140,1101)"/>
</svg>
